<?xml version="1.0" encoding="utf-8" standalone="no"?>
<!DOCTYPE svg PUBLIC "-//W3C//DTD SVG 1.1//EN"
  "http://www.w3.org/Graphics/SVG/1.1/DTD/svg11.dtd">
<svg xmlns:xlink="http://www.w3.org/1999/xlink" width="751.209062pt" height="493.480766pt" viewBox="0 0 751.209062 493.480766" xmlns="http://www.w3.org/2000/svg" version="1.1">
 <metadata>
  <rdf:RDF xmlns:dc="http://purl.org/dc/elements/1.1/" xmlns:cc="http://creativecommons.org/ns#" xmlns:rdf="http://www.w3.org/1999/02/22-rdf-syntax-ns#">
   <cc:Work>
    <dc:type rdf:resource="http://purl.org/dc/dcmitype/StillImage"/>
    <dc:date>2022-01-18T10:35:36.233408</dc:date>
    <dc:format>image/svg+xml</dc:format>
    <dc:creator>
     <cc:Agent>
      <dc:title>Matplotlib v3.5.0, https://matplotlib.org/</dc:title>
     </cc:Agent>
    </dc:creator>
   </cc:Work>
  </rdf:RDF>
 </metadata>
 <defs>
  <style type="text/css">*{stroke-linejoin: round; stroke-linecap: butt}</style>
 </defs>
 <g id="figure_1">
  <g id="patch_1">
   <path d="M 0 493.480766 
L 751.209062 493.480766 
L 751.209062 0 
L 0 0 
L 0 493.480766 
z
" style="fill: none"/>
  </g>
  <g id="axes_1">
   <g id="patch_2">
    <path d="M 74.409063 445.601704 
L 744.009063 445.601704 
L 744.009063 10.721704 
L 74.409063 10.721704 
z
" style="fill: #ffffff"/>
   </g>
   <g id="matplotlib.axis_1">
    <g id="xtick_1">
     <g id="line2d_1">
      <path d="M 104.845426 445.601704 
L 104.845426 10.721704 
" clip-path="url(#p6812960d7f)" style="fill: none; stroke: #b0b0b0; stroke-width: 0.8; stroke-linecap: square"/>
     </g>
     <g id="line2d_2">
      <defs>
       <path id="mcdd8d2edaa" d="M 0 0 
L 0 3.5 
" style="stroke: #000000; stroke-width: 0.8"/>
      </defs>
      <g>
       <use xlink:href="#mcdd8d2edaa" x="104.845426" y="445.601704" style="stroke: #000000; stroke-width: 0.8"/>
      </g>
     </g>
     <g id="text_1">
      <!-- 0 -->
      <g transform="translate(100.391676 463.239516)scale(0.14 -0.14)">
       <defs>
        <path id="DejaVuSans-30" d="M 2034 4250 
Q 1547 4250 1301 3770 
Q 1056 3291 1056 2328 
Q 1056 1369 1301 889 
Q 1547 409 2034 409 
Q 2525 409 2770 889 
Q 3016 1369 3016 2328 
Q 3016 3291 2770 3770 
Q 2525 4250 2034 4250 
z
M 2034 4750 
Q 2819 4750 3233 4129 
Q 3647 3509 3647 2328 
Q 3647 1150 3233 529 
Q 2819 -91 2034 -91 
Q 1250 -91 836 529 
Q 422 1150 422 2328 
Q 422 3509 836 4129 
Q 1250 4750 2034 4750 
z
" transform="scale(0.015625)"/>
       </defs>
       <use xlink:href="#DejaVuSans-30"/>
      </g>
     </g>
    </g>
    <g id="xtick_2">
     <g id="line2d_3">
      <path d="M 180.746582 445.601704 
L 180.746582 10.721704 
" clip-path="url(#p6812960d7f)" style="fill: none; stroke: #b0b0b0; stroke-width: 0.8; stroke-linecap: square"/>
     </g>
     <g id="line2d_4">
      <g>
       <use xlink:href="#mcdd8d2edaa" x="180.746582" y="445.601704" style="stroke: #000000; stroke-width: 0.8"/>
      </g>
     </g>
     <g id="text_2">
      <!-- 50 -->
      <g transform="translate(171.839082 463.239516)scale(0.14 -0.14)">
       <defs>
        <path id="DejaVuSans-35" d="M 691 4666 
L 3169 4666 
L 3169 4134 
L 1269 4134 
L 1269 2991 
Q 1406 3038 1543 3061 
Q 1681 3084 1819 3084 
Q 2600 3084 3056 2656 
Q 3513 2228 3513 1497 
Q 3513 744 3044 326 
Q 2575 -91 1722 -91 
Q 1428 -91 1123 -41 
Q 819 9 494 109 
L 494 744 
Q 775 591 1075 516 
Q 1375 441 1709 441 
Q 2250 441 2565 725 
Q 2881 1009 2881 1497 
Q 2881 1984 2565 2268 
Q 2250 2553 1709 2553 
Q 1456 2553 1204 2497 
Q 953 2441 691 2322 
L 691 4666 
z
" transform="scale(0.015625)"/>
       </defs>
       <use xlink:href="#DejaVuSans-35"/>
       <use xlink:href="#DejaVuSans-30" x="63.623047"/>
      </g>
     </g>
    </g>
    <g id="xtick_3">
     <g id="line2d_5">
      <path d="M 256.647739 445.601704 
L 256.647739 10.721704 
" clip-path="url(#p6812960d7f)" style="fill: none; stroke: #b0b0b0; stroke-width: 0.8; stroke-linecap: square"/>
     </g>
     <g id="line2d_6">
      <g>
       <use xlink:href="#mcdd8d2edaa" x="256.647739" y="445.601704" style="stroke: #000000; stroke-width: 0.8"/>
      </g>
     </g>
     <g id="text_3">
      <!-- 100 -->
      <g transform="translate(243.286489 463.239516)scale(0.14 -0.14)">
       <defs>
        <path id="DejaVuSans-31" d="M 794 531 
L 1825 531 
L 1825 4091 
L 703 3866 
L 703 4441 
L 1819 4666 
L 2450 4666 
L 2450 531 
L 3481 531 
L 3481 0 
L 794 0 
L 794 531 
z
" transform="scale(0.015625)"/>
       </defs>
       <use xlink:href="#DejaVuSans-31"/>
       <use xlink:href="#DejaVuSans-30" x="63.623047"/>
       <use xlink:href="#DejaVuSans-30" x="127.246094"/>
      </g>
     </g>
    </g>
    <g id="xtick_4">
     <g id="line2d_7">
      <path d="M 332.548895 445.601704 
L 332.548895 10.721704 
" clip-path="url(#p6812960d7f)" style="fill: none; stroke: #b0b0b0; stroke-width: 0.8; stroke-linecap: square"/>
     </g>
     <g id="line2d_8">
      <g>
       <use xlink:href="#mcdd8d2edaa" x="332.548895" y="445.601704" style="stroke: #000000; stroke-width: 0.8"/>
      </g>
     </g>
     <g id="text_4">
      <!-- 150 -->
      <g transform="translate(319.187645 463.239516)scale(0.14 -0.14)">
       <use xlink:href="#DejaVuSans-31"/>
       <use xlink:href="#DejaVuSans-35" x="63.623047"/>
       <use xlink:href="#DejaVuSans-30" x="127.246094"/>
      </g>
     </g>
    </g>
    <g id="xtick_5">
     <g id="line2d_9">
      <path d="M 408.450051 445.601704 
L 408.450051 10.721704 
" clip-path="url(#p6812960d7f)" style="fill: none; stroke: #b0b0b0; stroke-width: 0.8; stroke-linecap: square"/>
     </g>
     <g id="line2d_10">
      <g>
       <use xlink:href="#mcdd8d2edaa" x="408.450051" y="445.601704" style="stroke: #000000; stroke-width: 0.8"/>
      </g>
     </g>
     <g id="text_5">
      <!-- 200 -->
      <g transform="translate(395.088801 463.239516)scale(0.14 -0.14)">
       <defs>
        <path id="DejaVuSans-32" d="M 1228 531 
L 3431 531 
L 3431 0 
L 469 0 
L 469 531 
Q 828 903 1448 1529 
Q 2069 2156 2228 2338 
Q 2531 2678 2651 2914 
Q 2772 3150 2772 3378 
Q 2772 3750 2511 3984 
Q 2250 4219 1831 4219 
Q 1534 4219 1204 4116 
Q 875 4013 500 3803 
L 500 4441 
Q 881 4594 1212 4672 
Q 1544 4750 1819 4750 
Q 2544 4750 2975 4387 
Q 3406 4025 3406 3419 
Q 3406 3131 3298 2873 
Q 3191 2616 2906 2266 
Q 2828 2175 2409 1742 
Q 1991 1309 1228 531 
z
" transform="scale(0.015625)"/>
       </defs>
       <use xlink:href="#DejaVuSans-32"/>
       <use xlink:href="#DejaVuSans-30" x="63.623047"/>
       <use xlink:href="#DejaVuSans-30" x="127.246094"/>
      </g>
     </g>
    </g>
    <g id="xtick_6">
     <g id="line2d_11">
      <path d="M 484.351207 445.601704 
L 484.351207 10.721704 
" clip-path="url(#p6812960d7f)" style="fill: none; stroke: #b0b0b0; stroke-width: 0.8; stroke-linecap: square"/>
     </g>
     <g id="line2d_12">
      <g>
       <use xlink:href="#mcdd8d2edaa" x="484.351207" y="445.601704" style="stroke: #000000; stroke-width: 0.8"/>
      </g>
     </g>
     <g id="text_6">
      <!-- 250 -->
      <g transform="translate(470.989957 463.239516)scale(0.14 -0.14)">
       <use xlink:href="#DejaVuSans-32"/>
       <use xlink:href="#DejaVuSans-35" x="63.623047"/>
       <use xlink:href="#DejaVuSans-30" x="127.246094"/>
      </g>
     </g>
    </g>
    <g id="xtick_7">
     <g id="line2d_13">
      <path d="M 560.252363 445.601704 
L 560.252363 10.721704 
" clip-path="url(#p6812960d7f)" style="fill: none; stroke: #b0b0b0; stroke-width: 0.8; stroke-linecap: square"/>
     </g>
     <g id="line2d_14">
      <g>
       <use xlink:href="#mcdd8d2edaa" x="560.252363" y="445.601704" style="stroke: #000000; stroke-width: 0.8"/>
      </g>
     </g>
     <g id="text_7">
      <!-- 300 -->
      <g transform="translate(546.891113 463.239516)scale(0.14 -0.14)">
       <defs>
        <path id="DejaVuSans-33" d="M 2597 2516 
Q 3050 2419 3304 2112 
Q 3559 1806 3559 1356 
Q 3559 666 3084 287 
Q 2609 -91 1734 -91 
Q 1441 -91 1130 -33 
Q 819 25 488 141 
L 488 750 
Q 750 597 1062 519 
Q 1375 441 1716 441 
Q 2309 441 2620 675 
Q 2931 909 2931 1356 
Q 2931 1769 2642 2001 
Q 2353 2234 1838 2234 
L 1294 2234 
L 1294 2753 
L 1863 2753 
Q 2328 2753 2575 2939 
Q 2822 3125 2822 3475 
Q 2822 3834 2567 4026 
Q 2313 4219 1838 4219 
Q 1578 4219 1281 4162 
Q 984 4106 628 3988 
L 628 4550 
Q 988 4650 1302 4700 
Q 1616 4750 1894 4750 
Q 2613 4750 3031 4423 
Q 3450 4097 3450 3541 
Q 3450 3153 3228 2886 
Q 3006 2619 2597 2516 
z
" transform="scale(0.015625)"/>
       </defs>
       <use xlink:href="#DejaVuSans-33"/>
       <use xlink:href="#DejaVuSans-30" x="63.623047"/>
       <use xlink:href="#DejaVuSans-30" x="127.246094"/>
      </g>
     </g>
    </g>
    <g id="xtick_8">
     <g id="line2d_15">
      <path d="M 636.15352 445.601704 
L 636.15352 10.721704 
" clip-path="url(#p6812960d7f)" style="fill: none; stroke: #b0b0b0; stroke-width: 0.8; stroke-linecap: square"/>
     </g>
     <g id="line2d_16">
      <g>
       <use xlink:href="#mcdd8d2edaa" x="636.15352" y="445.601704" style="stroke: #000000; stroke-width: 0.8"/>
      </g>
     </g>
     <g id="text_8">
      <!-- 350 -->
      <g transform="translate(622.79227 463.239516)scale(0.14 -0.14)">
       <use xlink:href="#DejaVuSans-33"/>
       <use xlink:href="#DejaVuSans-35" x="63.623047"/>
       <use xlink:href="#DejaVuSans-30" x="127.246094"/>
      </g>
     </g>
    </g>
    <g id="xtick_9">
     <g id="line2d_17">
      <path d="M 712.054676 445.601704 
L 712.054676 10.721704 
" clip-path="url(#p6812960d7f)" style="fill: none; stroke: #b0b0b0; stroke-width: 0.8; stroke-linecap: square"/>
     </g>
     <g id="line2d_18">
      <g>
       <use xlink:href="#mcdd8d2edaa" x="712.054676" y="445.601704" style="stroke: #000000; stroke-width: 0.8"/>
      </g>
     </g>
     <g id="text_9">
      <!-- 400 -->
      <g transform="translate(698.693426 463.239516)scale(0.14 -0.14)">
       <defs>
        <path id="DejaVuSans-34" d="M 2419 4116 
L 825 1625 
L 2419 1625 
L 2419 4116 
z
M 2253 4666 
L 3047 4666 
L 3047 1625 
L 3713 1625 
L 3713 1100 
L 3047 1100 
L 3047 0 
L 2419 0 
L 2419 1100 
L 313 1100 
L 313 1709 
L 2253 4666 
z
" transform="scale(0.015625)"/>
       </defs>
       <use xlink:href="#DejaVuSans-34"/>
       <use xlink:href="#DejaVuSans-30" x="63.623047"/>
       <use xlink:href="#DejaVuSans-30" x="127.246094"/>
      </g>
     </g>
    </g>
    <g id="text_10">
     <!-- Reading point / a.u. -->
     <g transform="translate(337.320156 483.071704)scale(0.18 -0.18)">
      <defs>
       <path id="Calibri-52" d="M 3234 81 
Q 3234 56 3225 37 
Q 3216 19 3184 6 
Q 3153 -6 3097 -12 
Q 3041 -19 2947 -19 
Q 2866 -19 2814 -12 
Q 2763 -6 2731 8 
Q 2700 22 2683 47 
Q 2666 72 2653 109 
L 2281 1063 
Q 2216 1225 2145 1361 
Q 2075 1497 1978 1595 
Q 1881 1694 1750 1748 
Q 1619 1803 1434 1803 
L 1075 1803 
L 1075 81 
Q 1075 56 1061 37 
Q 1047 19 1017 8 
Q 988 -3 936 -11 
Q 884 -19 806 -19 
Q 728 -19 676 -11 
Q 625 -3 594 8 
Q 563 19 550 37 
Q 538 56 538 81 
L 538 3825 
Q 538 3947 602 3995 
Q 666 4044 738 4044 
L 1597 4044 
Q 1750 4044 1851 4036 
Q 1953 4028 2034 4019 
Q 2269 3978 2448 3890 
Q 2628 3803 2750 3668 
Q 2872 3534 2933 3361 
Q 2994 3188 2994 2978 
Q 2994 2775 2939 2614 
Q 2884 2453 2781 2329 
Q 2678 2206 2534 2115 
Q 2391 2025 2213 1963 
Q 2313 1919 2394 1851 
Q 2475 1784 2545 1690 
Q 2616 1597 2678 1475 
Q 2741 1353 2803 1200 
L 3166 309 
Q 3209 197 3221 151 
Q 3234 106 3234 81 
z
M 2425 2922 
Q 2425 3159 2319 3323 
Q 2213 3488 1963 3559 
Q 1884 3581 1786 3590 
Q 1688 3600 1528 3600 
L 1075 3600 
L 1075 2238 
L 1600 2238 
Q 1813 2238 1967 2289 
Q 2122 2341 2225 2433 
Q 2328 2525 2376 2650 
Q 2425 2775 2425 2922 
z
" transform="scale(0.015625)"/>
       <path id="Calibri-65" d="M 2878 1606 
Q 2878 1484 2817 1432 
Q 2756 1381 2678 1381 
L 834 1381 
Q 834 1147 881 959 
Q 928 772 1037 637 
Q 1147 503 1322 431 
Q 1497 359 1750 359 
Q 1950 359 2106 392 
Q 2263 425 2377 465 
Q 2491 506 2564 539 
Q 2638 572 2675 572 
Q 2697 572 2714 561 
Q 2731 550 2740 528 
Q 2750 506 2754 467 
Q 2759 428 2759 372 
Q 2759 331 2756 301 
Q 2753 272 2748 248 
Q 2744 225 2733 206 
Q 2722 188 2705 170 
Q 2688 153 2603 114 
Q 2519 75 2384 37 
Q 2250 0 2073 -29 
Q 1897 -59 1697 -59 
Q 1350 -59 1089 37 
Q 828 134 650 325 
Q 472 516 381 803 
Q 291 1091 291 1472 
Q 291 1834 384 2123 
Q 478 2413 654 2614 
Q 831 2816 1081 2923 
Q 1331 3031 1641 3031 
Q 1972 3031 2205 2925 
Q 2438 2819 2588 2639 
Q 2738 2459 2808 2217 
Q 2878 1975 2878 1700 
L 2878 1606 
z
M 2359 1759 
Q 2369 2166 2180 2397 
Q 1991 2628 1619 2628 
Q 1428 2628 1284 2556 
Q 1141 2484 1044 2365 
Q 947 2247 894 2089 
Q 841 1931 834 1759 
L 2359 1759 
z
" transform="scale(0.015625)"/>
       <path id="Calibri-61" d="M 2597 75 
Q 2597 38 2572 19 
Q 2547 0 2503 -9 
Q 2459 -19 2375 -19 
Q 2294 -19 2245 -9 
Q 2197 0 2175 19 
Q 2153 38 2153 75 
L 2153 356 
Q 1969 159 1742 50 
Q 1516 -59 1263 -59 
Q 1041 -59 861 -1 
Q 681 56 554 165 
Q 428 275 358 434 
Q 288 594 288 797 
Q 288 1034 384 1209 
Q 481 1384 662 1500 
Q 844 1616 1106 1673 
Q 1369 1731 1697 1731 
L 2084 1731 
L 2084 1950 
Q 2084 2113 2050 2238 
Q 2016 2363 1939 2445 
Q 1863 2528 1741 2570 
Q 1619 2613 1441 2613 
Q 1250 2613 1098 2567 
Q 947 2522 833 2467 
Q 719 2413 642 2367 
Q 566 2322 528 2322 
Q 503 2322 484 2334 
Q 466 2347 452 2372 
Q 438 2397 431 2436 
Q 425 2475 425 2522 
Q 425 2600 436 2645 
Q 447 2691 489 2731 
Q 531 2772 634 2826 
Q 738 2881 872 2926 
Q 1006 2972 1165 3001 
Q 1325 3031 1488 3031 
Q 1791 3031 2003 2962 
Q 2216 2894 2347 2761 
Q 2478 2628 2537 2431 
Q 2597 2234 2597 1972 
L 2597 75 
z
M 2084 1359 
L 1644 1359 
Q 1431 1359 1275 1323 
Q 1119 1288 1016 1217 
Q 913 1147 864 1048 
Q 816 950 816 822 
Q 816 603 955 473 
Q 1094 344 1344 344 
Q 1547 344 1720 447 
Q 1894 550 2084 763 
L 2084 1359 
z
" transform="scale(0.015625)"/>
       <path id="Calibri-64" d="M 2888 78 
Q 2888 53 2877 34 
Q 2866 16 2839 5 
Q 2813 -6 2769 -12 
Q 2725 -19 2663 -19 
Q 2597 -19 2553 -12 
Q 2509 -6 2481 5 
Q 2453 16 2440 34 
Q 2428 53 2428 78 
L 2428 450 
Q 2206 209 1967 75 
Q 1728 -59 1444 -59 
Q 1134 -59 915 61 
Q 697 181 561 386 
Q 425 591 362 867 
Q 300 1144 300 1450 
Q 300 1813 378 2105 
Q 456 2397 609 2603 
Q 763 2809 989 2920 
Q 1216 3031 1513 3031 
Q 1759 3031 1964 2923 
Q 2169 2816 2369 2606 
L 2369 4241 
Q 2369 4263 2380 4283 
Q 2391 4303 2422 4314 
Q 2453 4325 2501 4333 
Q 2550 4341 2625 4341 
Q 2703 4341 2753 4333 
Q 2803 4325 2831 4314 
Q 2859 4303 2873 4283 
Q 2888 4263 2888 4241 
L 2888 78 
z
M 2369 2056 
Q 2159 2316 1964 2452 
Q 1769 2588 1556 2588 
Q 1359 2588 1221 2494 
Q 1084 2400 998 2247 
Q 913 2094 873 1900 
Q 834 1706 834 1506 
Q 834 1294 867 1091 
Q 900 888 981 730 
Q 1063 572 1197 476 
Q 1331 381 1534 381 
Q 1638 381 1733 409 
Q 1828 438 1928 503 
Q 2028 569 2137 673 
Q 2247 778 2369 931 
L 2369 2056 
z
" transform="scale(0.015625)"/>
       <path id="Calibri-69" d="M 994 78 
Q 994 53 981 36 
Q 969 19 941 6 
Q 913 -6 863 -12 
Q 813 -19 734 -19 
Q 659 -19 609 -12 
Q 559 -6 529 6 
Q 500 19 489 36 
Q 478 53 478 78 
L 478 2891 
Q 478 2913 489 2931 
Q 500 2950 529 2962 
Q 559 2975 609 2981 
Q 659 2988 734 2988 
Q 813 2988 863 2981 
Q 913 2975 941 2962 
Q 969 2950 981 2931 
Q 994 2913 994 2891 
L 994 78 
z
M 1053 3841 
Q 1053 3659 984 3593 
Q 916 3528 731 3528 
Q 550 3528 483 3592 
Q 416 3656 416 3834 
Q 416 4016 484 4081 
Q 553 4147 738 4147 
Q 919 4147 986 4083 
Q 1053 4019 1053 3841 
z
" transform="scale(0.015625)"/>
       <path id="Calibri-6e" d="M 2900 78 
Q 2900 53 2887 36 
Q 2875 19 2847 6 
Q 2819 -6 2769 -12 
Q 2719 -19 2644 -19 
Q 2566 -19 2516 -12 
Q 2466 -6 2437 6 
Q 2409 19 2396 36 
Q 2384 53 2384 78 
L 2384 1725 
Q 2384 1966 2346 2112 
Q 2309 2259 2237 2365 
Q 2166 2472 2052 2528 
Q 1938 2584 1788 2584 
Q 1594 2584 1400 2446 
Q 1206 2309 994 2044 
L 994 78 
Q 994 53 981 36 
Q 969 19 941 6 
Q 913 -6 863 -12 
Q 813 -19 734 -19 
Q 659 -19 609 -12 
Q 559 -6 529 6 
Q 500 19 489 36 
Q 478 53 478 78 
L 478 2891 
Q 478 2916 487 2933 
Q 497 2950 525 2964 
Q 553 2978 597 2983 
Q 641 2988 713 2988 
Q 781 2988 826 2983 
Q 872 2978 897 2964 
Q 922 2950 933 2933 
Q 944 2916 944 2891 
L 944 2519 
Q 1181 2784 1417 2907 
Q 1653 3031 1894 3031 
Q 2175 3031 2367 2936 
Q 2559 2841 2678 2681 
Q 2797 2522 2848 2308 
Q 2900 2094 2900 1794 
L 2900 78 
z
" transform="scale(0.015625)"/>
       <path id="Calibri-67" d="M 2828 2763 
Q 2828 2653 2798 2604 
Q 2769 2556 2722 2556 
L 2319 2556 
Q 2428 2444 2472 2308 
Q 2516 2172 2516 2025 
Q 2516 1781 2437 1593 
Q 2359 1406 2214 1276 
Q 2069 1147 1869 1078 
Q 1669 1009 1425 1009 
Q 1253 1009 1098 1054 
Q 944 1100 859 1169 
Q 803 1113 767 1041 
Q 731 969 731 875 
Q 731 766 832 694 
Q 934 622 1103 616 
L 1838 584 
Q 2047 578 2222 526 
Q 2397 475 2525 379 
Q 2653 284 2725 145 
Q 2797 6 2797 -178 
Q 2797 -372 2715 -547 
Q 2634 -722 2467 -855 
Q 2300 -988 2040 -1064 
Q 1781 -1141 1428 -1141 
Q 1088 -1141 848 -1083 
Q 609 -1025 456 -925 
Q 303 -825 234 -686 
Q 166 -547 166 -384 
Q 166 -281 191 -184 
Q 216 -88 267 0 
Q 319 88 395 167 
Q 472 247 572 325 
Q 419 403 345 522 
Q 272 641 272 778 
Q 272 969 350 1119 
Q 428 1269 544 1388 
Q 447 1503 390 1648 
Q 334 1794 334 2000 
Q 334 2241 415 2431 
Q 497 2622 640 2753 
Q 784 2884 986 2954 
Q 1188 3025 1425 3025 
Q 1553 3025 1664 3011 
Q 1775 2997 1872 2972 
L 2722 2972 
Q 2775 2972 2801 2920 
Q 2828 2869 2828 2763 
z
M 2022 2022 
Q 2022 2309 1864 2470 
Q 1706 2631 1416 2631 
Q 1266 2631 1155 2581 
Q 1044 2531 970 2443 
Q 897 2356 861 2242 
Q 825 2128 825 2003 
Q 825 1725 983 1565 
Q 1141 1406 1425 1406 
Q 1578 1406 1690 1454 
Q 1803 1503 1876 1589 
Q 1950 1675 1986 1787 
Q 2022 1900 2022 2022 
z
M 2281 -206 
Q 2281 -25 2132 73 
Q 1984 172 1731 178 
L 1003 203 
Q 903 125 839 54 
Q 775 -16 737 -80 
Q 700 -144 686 -206 
Q 672 -269 672 -334 
Q 672 -538 878 -642 
Q 1084 -747 1453 -747 
Q 1688 -747 1845 -701 
Q 2003 -656 2100 -581 
Q 2197 -506 2239 -409 
Q 2281 -313 2281 -206 
z
" transform="scale(0.015625)"/>
       <path id="Calibri-20" transform="scale(0.015625)"/>
       <path id="Calibri-70" d="M 3066 1528 
Q 3066 1159 2986 865 
Q 2906 572 2751 367 
Q 2597 163 2369 52 
Q 2141 -59 1847 -59 
Q 1722 -59 1615 -34 
Q 1509 -9 1407 44 
Q 1306 97 1206 178 
Q 1106 259 994 369 
L 994 -1038 
Q 994 -1063 981 -1081 
Q 969 -1100 941 -1112 
Q 913 -1125 863 -1131 
Q 813 -1138 734 -1138 
Q 659 -1138 609 -1131 
Q 559 -1125 529 -1112 
Q 500 -1100 489 -1081 
Q 478 -1063 478 -1038 
L 478 2891 
Q 478 2919 487 2936 
Q 497 2953 525 2965 
Q 553 2978 597 2983 
Q 641 2988 703 2988 
Q 769 2988 811 2983 
Q 853 2978 881 2965 
Q 909 2953 920 2936 
Q 931 2919 931 2891 
L 931 2513 
Q 1059 2644 1178 2741 
Q 1297 2838 1417 2902 
Q 1538 2966 1664 2998 
Q 1791 3031 1931 3031 
Q 2238 3031 2453 2912 
Q 2669 2794 2805 2587 
Q 2941 2381 3003 2107 
Q 3066 1834 3066 1528 
z
M 2522 1469 
Q 2522 1684 2489 1886 
Q 2456 2088 2376 2244 
Q 2297 2400 2162 2494 
Q 2028 2588 1828 2588 
Q 1728 2588 1631 2558 
Q 1534 2528 1434 2464 
Q 1334 2400 1225 2295 
Q 1116 2191 994 2038 
L 994 919 
Q 1206 659 1397 521 
Q 1588 384 1797 384 
Q 1991 384 2130 478 
Q 2269 572 2355 728 
Q 2441 884 2481 1078 
Q 2522 1272 2522 1469 
z
" transform="scale(0.015625)"/>
       <path id="Calibri-6f" d="M 3094 1516 
Q 3094 1172 3003 883 
Q 2913 594 2733 384 
Q 2553 175 2283 58 
Q 2013 -59 1656 -59 
Q 1309 -59 1051 44 
Q 794 147 622 344 
Q 450 541 365 822 
Q 281 1103 281 1459 
Q 281 1803 370 2092 
Q 459 2381 639 2590 
Q 819 2800 1087 2915 
Q 1356 3031 1716 3031 
Q 2063 3031 2320 2928 
Q 2578 2825 2750 2628 
Q 2922 2431 3008 2150 
Q 3094 1869 3094 1516 
z
M 2550 1481 
Q 2550 1709 2508 1912 
Q 2466 2116 2369 2269 
Q 2272 2422 2106 2511 
Q 1941 2600 1694 2600 
Q 1466 2600 1302 2519 
Q 1138 2438 1031 2289 
Q 925 2141 873 1937 
Q 822 1734 822 1494 
Q 822 1263 864 1059 
Q 906 856 1004 704 
Q 1103 553 1268 464 
Q 1434 375 1681 375 
Q 1906 375 2072 456 
Q 2238 538 2344 684 
Q 2450 831 2500 1034 
Q 2550 1238 2550 1481 
z
" transform="scale(0.015625)"/>
       <path id="Calibri-74" d="M 1941 284 
Q 1941 194 1928 141 
Q 1916 88 1891 63 
Q 1866 38 1816 16 
Q 1766 -6 1702 -20 
Q 1638 -34 1566 -43 
Q 1494 -53 1422 -53 
Q 1203 -53 1047 5 
Q 891 63 791 180 
Q 691 297 645 476 
Q 600 656 600 900 
L 600 2544 
L 206 2544 
Q 159 2544 131 2594 
Q 103 2644 103 2756 
Q 103 2816 111 2856 
Q 119 2897 131 2923 
Q 144 2950 164 2961 
Q 184 2972 209 2972 
L 600 2972 
L 600 3641 
Q 600 3663 611 3681 
Q 622 3700 651 3714 
Q 681 3728 731 3734 
Q 781 3741 856 3741 
Q 934 3741 984 3734 
Q 1034 3728 1062 3714 
Q 1091 3700 1103 3681 
Q 1116 3663 1116 3641 
L 1116 2972 
L 1838 2972 
Q 1863 2972 1881 2961 
Q 1900 2950 1914 2923 
Q 1928 2897 1934 2856 
Q 1941 2816 1941 2756 
Q 1941 2644 1912 2594 
Q 1884 2544 1838 2544 
L 1116 2544 
L 1116 975 
Q 1116 684 1202 536 
Q 1288 388 1509 388 
Q 1581 388 1637 402 
Q 1694 416 1737 431 
Q 1781 447 1812 461 
Q 1844 475 1869 475 
Q 1884 475 1898 467 
Q 1913 459 1920 437 
Q 1928 416 1934 378 
Q 1941 341 1941 284 
z
" transform="scale(0.015625)"/>
       <path id="Calibri-2f" d="M 525 -753 
Q 513 -794 492 -817 
Q 472 -841 440 -853 
Q 409 -866 364 -872 
Q 319 -878 253 -878 
Q 175 -878 123 -867 
Q 72 -856 44 -836 
Q 16 -816 9 -786 
Q 3 -756 22 -716 
L 1913 4469 
Q 1925 4509 1945 4532 
Q 1966 4556 1995 4570 
Q 2025 4584 2072 4589 
Q 2119 4594 2184 4594 
Q 2263 4594 2313 4583 
Q 2363 4572 2391 4553 
Q 2419 4534 2425 4503 
Q 2431 4472 2416 4431 
L 525 -753 
z
" transform="scale(0.015625)"/>
       <path id="Calibri-2e" d="M 1144 341 
Q 1144 119 1070 45 
Q 997 -28 803 -28 
Q 616 -28 544 44 
Q 472 116 472 331 
Q 472 553 545 626 
Q 619 700 813 700 
Q 1000 700 1072 628 
Q 1144 556 1144 341 
z
" transform="scale(0.015625)"/>
       <path id="Calibri-75" d="M 2888 78 
Q 2888 53 2877 36 
Q 2866 19 2837 6 
Q 2809 -6 2764 -12 
Q 2719 -19 2653 -19 
Q 2581 -19 2536 -12 
Q 2491 -6 2464 6 
Q 2438 19 2428 36 
Q 2419 53 2419 78 
L 2419 450 
Q 2178 184 1943 62 
Q 1709 -59 1469 -59 
Q 1188 -59 995 34 
Q 803 128 684 289 
Q 566 450 514 664 
Q 463 878 463 1184 
L 463 2891 
Q 463 2916 473 2933 
Q 484 2950 515 2964 
Q 547 2978 597 2983 
Q 647 2988 722 2988 
Q 797 2988 847 2983 
Q 897 2978 926 2964 
Q 956 2950 968 2933 
Q 981 2916 981 2891 
L 981 1253 
Q 981 1006 1017 857 
Q 1053 709 1126 604 
Q 1200 500 1312 442 
Q 1425 384 1575 384 
Q 1769 384 1961 521 
Q 2153 659 2369 925 
L 2369 2891 
Q 2369 2916 2380 2933 
Q 2391 2950 2422 2964 
Q 2453 2978 2501 2983 
Q 2550 2988 2628 2988 
Q 2703 2988 2753 2983 
Q 2803 2978 2831 2964 
Q 2859 2950 2873 2933 
Q 2888 2916 2888 2891 
L 2888 78 
z
" transform="scale(0.015625)"/>
      </defs>
      <use xlink:href="#Calibri-52"/>
      <use xlink:href="#Calibri-65" x="54.296875"/>
      <use xlink:href="#Calibri-61" x="104.052734"/>
      <use xlink:href="#Calibri-64" x="151.953125"/>
      <use xlink:href="#Calibri-69" x="204.492188"/>
      <use xlink:href="#Calibri-6e" x="227.441406"/>
      <use xlink:href="#Calibri-67" x="279.980469"/>
      <use xlink:href="#Calibri-20" x="327.050781"/>
      <use xlink:href="#Calibri-70" x="349.658203"/>
      <use xlink:href="#Calibri-6f" x="402.197266"/>
      <use xlink:href="#Calibri-69" x="454.931641"/>
      <use xlink:href="#Calibri-6e" x="477.880859"/>
      <use xlink:href="#Calibri-74" x="530.419922"/>
      <use xlink:href="#Calibri-20" x="563.916016"/>
      <use xlink:href="#Calibri-2f" x="586.523438"/>
      <use xlink:href="#Calibri-20" x="625.146484"/>
      <use xlink:href="#Calibri-61" x="647.753906"/>
      <use xlink:href="#Calibri-2e" x="695.654297"/>
      <use xlink:href="#Calibri-75" x="720.898438"/>
      <use xlink:href="#Calibri-2e" x="773.4375"/>
     </g>
    </g>
   </g>
   <g id="matplotlib.axis_2">
    <g id="ytick_1">
     <g id="line2d_19">
      <path d="M 74.409063 386.524155 
L 744.009063 386.524155 
" clip-path="url(#p6812960d7f)" style="fill: none; stroke: #b0b0b0; stroke-width: 0.8; stroke-linecap: square"/>
     </g>
     <g id="line2d_20">
      <defs>
       <path id="mdfd31aef6a" d="M 0 0 
L -3.5 0 
" style="stroke: #000000; stroke-width: 0.8"/>
      </defs>
      <g>
       <use xlink:href="#mdfd31aef6a" x="74.409063" y="386.524155" style="stroke: #000000; stroke-width: 0.8"/>
      </g>
     </g>
     <g id="text_11">
      <!-- 0.436 -->
      <g transform="translate(27.329687 391.843061)scale(0.14 -0.14)">
       <defs>
        <path id="DejaVuSans-2e" d="M 684 794 
L 1344 794 
L 1344 0 
L 684 0 
L 684 794 
z
" transform="scale(0.015625)"/>
        <path id="DejaVuSans-36" d="M 2113 2584 
Q 1688 2584 1439 2293 
Q 1191 2003 1191 1497 
Q 1191 994 1439 701 
Q 1688 409 2113 409 
Q 2538 409 2786 701 
Q 3034 994 3034 1497 
Q 3034 2003 2786 2293 
Q 2538 2584 2113 2584 
z
M 3366 4563 
L 3366 3988 
Q 3128 4100 2886 4159 
Q 2644 4219 2406 4219 
Q 1781 4219 1451 3797 
Q 1122 3375 1075 2522 
Q 1259 2794 1537 2939 
Q 1816 3084 2150 3084 
Q 2853 3084 3261 2657 
Q 3669 2231 3669 1497 
Q 3669 778 3244 343 
Q 2819 -91 2113 -91 
Q 1303 -91 875 529 
Q 447 1150 447 2328 
Q 447 3434 972 4092 
Q 1497 4750 2381 4750 
Q 2619 4750 2861 4703 
Q 3103 4656 3366 4563 
z
" transform="scale(0.015625)"/>
       </defs>
       <use xlink:href="#DejaVuSans-30"/>
       <use xlink:href="#DejaVuSans-2e" x="63.623047"/>
       <use xlink:href="#DejaVuSans-34" x="95.410156"/>
       <use xlink:href="#DejaVuSans-33" x="159.033203"/>
       <use xlink:href="#DejaVuSans-36" x="222.65625"/>
      </g>
     </g>
    </g>
    <g id="ytick_2">
     <g id="line2d_21">
      <path d="M 74.409063 324.189947 
L 744.009063 324.189947 
" clip-path="url(#p6812960d7f)" style="fill: none; stroke: #b0b0b0; stroke-width: 0.8; stroke-linecap: square"/>
     </g>
     <g id="line2d_22">
      <g>
       <use xlink:href="#mdfd31aef6a" x="74.409063" y="324.189947" style="stroke: #000000; stroke-width: 0.8"/>
      </g>
     </g>
     <g id="text_12">
      <!-- 0.438 -->
      <g transform="translate(27.329687 329.508853)scale(0.14 -0.14)">
       <defs>
        <path id="DejaVuSans-38" d="M 2034 2216 
Q 1584 2216 1326 1975 
Q 1069 1734 1069 1313 
Q 1069 891 1326 650 
Q 1584 409 2034 409 
Q 2484 409 2743 651 
Q 3003 894 3003 1313 
Q 3003 1734 2745 1975 
Q 2488 2216 2034 2216 
z
M 1403 2484 
Q 997 2584 770 2862 
Q 544 3141 544 3541 
Q 544 4100 942 4425 
Q 1341 4750 2034 4750 
Q 2731 4750 3128 4425 
Q 3525 4100 3525 3541 
Q 3525 3141 3298 2862 
Q 3072 2584 2669 2484 
Q 3125 2378 3379 2068 
Q 3634 1759 3634 1313 
Q 3634 634 3220 271 
Q 2806 -91 2034 -91 
Q 1263 -91 848 271 
Q 434 634 434 1313 
Q 434 1759 690 2068 
Q 947 2378 1403 2484 
z
M 1172 3481 
Q 1172 3119 1398 2916 
Q 1625 2713 2034 2713 
Q 2441 2713 2670 2916 
Q 2900 3119 2900 3481 
Q 2900 3844 2670 4047 
Q 2441 4250 2034 4250 
Q 1625 4250 1398 4047 
Q 1172 3844 1172 3481 
z
" transform="scale(0.015625)"/>
       </defs>
       <use xlink:href="#DejaVuSans-30"/>
       <use xlink:href="#DejaVuSans-2e" x="63.623047"/>
       <use xlink:href="#DejaVuSans-34" x="95.410156"/>
       <use xlink:href="#DejaVuSans-33" x="159.033203"/>
       <use xlink:href="#DejaVuSans-38" x="222.65625"/>
      </g>
     </g>
    </g>
    <g id="ytick_3">
     <g id="line2d_23">
      <path d="M 74.409063 261.855739 
L 744.009063 261.855739 
" clip-path="url(#p6812960d7f)" style="fill: none; stroke: #b0b0b0; stroke-width: 0.8; stroke-linecap: square"/>
     </g>
     <g id="line2d_24">
      <g>
       <use xlink:href="#mdfd31aef6a" x="74.409063" y="261.855739" style="stroke: #000000; stroke-width: 0.8"/>
      </g>
     </g>
     <g id="text_13">
      <!-- 0.440 -->
      <g transform="translate(27.329687 267.174645)scale(0.14 -0.14)">
       <use xlink:href="#DejaVuSans-30"/>
       <use xlink:href="#DejaVuSans-2e" x="63.623047"/>
       <use xlink:href="#DejaVuSans-34" x="95.410156"/>
       <use xlink:href="#DejaVuSans-34" x="159.033203"/>
       <use xlink:href="#DejaVuSans-30" x="222.65625"/>
      </g>
     </g>
    </g>
    <g id="ytick_4">
     <g id="line2d_25">
      <path d="M 74.409063 199.521531 
L 744.009063 199.521531 
" clip-path="url(#p6812960d7f)" style="fill: none; stroke: #b0b0b0; stroke-width: 0.8; stroke-linecap: square"/>
     </g>
     <g id="line2d_26">
      <g>
       <use xlink:href="#mdfd31aef6a" x="74.409063" y="199.521531" style="stroke: #000000; stroke-width: 0.8"/>
      </g>
     </g>
     <g id="text_14">
      <!-- 0.442 -->
      <g transform="translate(27.329687 204.840437)scale(0.14 -0.14)">
       <use xlink:href="#DejaVuSans-30"/>
       <use xlink:href="#DejaVuSans-2e" x="63.623047"/>
       <use xlink:href="#DejaVuSans-34" x="95.410156"/>
       <use xlink:href="#DejaVuSans-34" x="159.033203"/>
       <use xlink:href="#DejaVuSans-32" x="222.65625"/>
      </g>
     </g>
    </g>
    <g id="ytick_5">
     <g id="line2d_27">
      <path d="M 74.409063 137.187323 
L 744.009063 137.187323 
" clip-path="url(#p6812960d7f)" style="fill: none; stroke: #b0b0b0; stroke-width: 0.8; stroke-linecap: square"/>
     </g>
     <g id="line2d_28">
      <g>
       <use xlink:href="#mdfd31aef6a" x="74.409063" y="137.187323" style="stroke: #000000; stroke-width: 0.8"/>
      </g>
     </g>
     <g id="text_15">
      <!-- 0.444 -->
      <g transform="translate(27.329687 142.506229)scale(0.14 -0.14)">
       <use xlink:href="#DejaVuSans-30"/>
       <use xlink:href="#DejaVuSans-2e" x="63.623047"/>
       <use xlink:href="#DejaVuSans-34" x="95.410156"/>
       <use xlink:href="#DejaVuSans-34" x="159.033203"/>
       <use xlink:href="#DejaVuSans-34" x="222.65625"/>
      </g>
     </g>
    </g>
    <g id="ytick_6">
     <g id="line2d_29">
      <path d="M 74.409063 74.853114 
L 744.009063 74.853114 
" clip-path="url(#p6812960d7f)" style="fill: none; stroke: #b0b0b0; stroke-width: 0.8; stroke-linecap: square"/>
     </g>
     <g id="line2d_30">
      <g>
       <use xlink:href="#mdfd31aef6a" x="74.409063" y="74.853114" style="stroke: #000000; stroke-width: 0.8"/>
      </g>
     </g>
     <g id="text_16">
      <!-- 0.446 -->
      <g transform="translate(27.329687 80.172021)scale(0.14 -0.14)">
       <use xlink:href="#DejaVuSans-30"/>
       <use xlink:href="#DejaVuSans-2e" x="63.623047"/>
       <use xlink:href="#DejaVuSans-34" x="95.410156"/>
       <use xlink:href="#DejaVuSans-34" x="159.033203"/>
       <use xlink:href="#DejaVuSans-36" x="222.65625"/>
      </g>
     </g>
    </g>
    <g id="ytick_7">
     <g id="line2d_31">
      <path d="M 74.409063 12.518906 
L 744.009063 12.518906 
" clip-path="url(#p6812960d7f)" style="fill: none; stroke: #b0b0b0; stroke-width: 0.8; stroke-linecap: square"/>
     </g>
     <g id="line2d_32">
      <g>
       <use xlink:href="#mdfd31aef6a" x="74.409063" y="12.518906" style="stroke: #000000; stroke-width: 0.8"/>
      </g>
     </g>
     <g id="text_17">
      <!-- 0.448 -->
      <g transform="translate(27.329687 17.837812)scale(0.14 -0.14)">
       <use xlink:href="#DejaVuSans-30"/>
       <use xlink:href="#DejaVuSans-2e" x="63.623047"/>
       <use xlink:href="#DejaVuSans-34" x="95.410156"/>
       <use xlink:href="#DejaVuSans-34" x="159.033203"/>
       <use xlink:href="#DejaVuSans-38" x="222.65625"/>
      </g>
     </g>
    </g>
    <g id="text_18">
     <!-- Signal range / a.u. -->
     <g transform="translate(20.120625 293.766079)rotate(-90)scale(0.18 -0.18)">
      <defs>
       <path id="Calibri-53" d="M 2709 1134 
Q 2709 850 2604 628 
Q 2500 406 2314 251 
Q 2128 97 1876 19 
Q 1625 -59 1334 -59 
Q 1131 -59 957 -25 
Q 784 9 648 59 
Q 513 109 420 162 
Q 328 216 292 253 
Q 256 291 239 348 
Q 222 406 222 503 
Q 222 572 228 617 
Q 234 663 246 691 
Q 259 719 278 730 
Q 297 741 322 741 
Q 366 741 445 687 
Q 525 634 650 571 
Q 775 509 951 454 
Q 1128 400 1359 400 
Q 1534 400 1679 447 
Q 1825 494 1929 580 
Q 2034 666 2090 791 
Q 2147 916 2147 1075 
Q 2147 1247 2069 1369 
Q 1991 1491 1862 1583 
Q 1734 1675 1570 1751 
Q 1406 1828 1234 1908 
Q 1063 1988 900 2084 
Q 738 2181 609 2312 
Q 481 2444 401 2620 
Q 322 2797 322 3044 
Q 322 3297 414 3495 
Q 506 3694 670 3828 
Q 834 3963 1061 4033 
Q 1288 4103 1550 4103 
Q 1684 4103 1820 4079 
Q 1956 4056 2076 4017 
Q 2197 3978 2290 3929 
Q 2384 3881 2414 3851 
Q 2444 3822 2453 3805 
Q 2463 3788 2469 3761 
Q 2475 3734 2478 3696 
Q 2481 3659 2481 3600 
Q 2481 3544 2476 3500 
Q 2472 3456 2462 3426 
Q 2453 3397 2436 3383 
Q 2419 3369 2397 3369 
Q 2363 3369 2289 3412 
Q 2216 3456 2109 3511 
Q 2003 3566 1858 3611 
Q 1713 3656 1531 3656 
Q 1363 3656 1238 3611 
Q 1113 3566 1031 3491 
Q 950 3416 909 3312 
Q 869 3209 869 3094 
Q 869 2925 947 2803 
Q 1025 2681 1154 2587 
Q 1284 2494 1450 2416 
Q 1616 2338 1787 2258 
Q 1959 2178 2125 2083 
Q 2291 1988 2420 1858 
Q 2550 1728 2629 1551 
Q 2709 1375 2709 1134 
z
" transform="scale(0.015625)"/>
       <path id="Calibri-6c" d="M 994 78 
Q 994 53 981 36 
Q 969 19 941 6 
Q 913 -6 863 -12 
Q 813 -19 734 -19 
Q 659 -19 609 -12 
Q 559 -6 529 6 
Q 500 19 489 36 
Q 478 53 478 78 
L 478 4253 
Q 478 4278 489 4297 
Q 500 4316 529 4328 
Q 559 4341 609 4347 
Q 659 4353 734 4353 
Q 813 4353 863 4347 
Q 913 4341 941 4328 
Q 969 4316 981 4297 
Q 994 4278 994 4253 
L 994 78 
z
" transform="scale(0.015625)"/>
       <path id="Calibri-72" d="M 2122 2706 
Q 2122 2638 2119 2591 
Q 2116 2544 2106 2517 
Q 2097 2491 2083 2477 
Q 2069 2463 2044 2463 
Q 2019 2463 1983 2477 
Q 1947 2491 1901 2505 
Q 1856 2519 1800 2531 
Q 1744 2544 1678 2544 
Q 1600 2544 1525 2512 
Q 1450 2481 1367 2409 
Q 1284 2338 1193 2219 
Q 1103 2100 994 1928 
L 994 78 
Q 994 53 981 36 
Q 969 19 941 6 
Q 913 -6 863 -12 
Q 813 -19 734 -19 
Q 659 -19 609 -12 
Q 559 -6 529 6 
Q 500 19 489 36 
Q 478 53 478 78 
L 478 2891 
Q 478 2916 487 2933 
Q 497 2950 525 2964 
Q 553 2978 597 2983 
Q 641 2988 713 2988 
Q 781 2988 826 2983 
Q 872 2978 897 2964 
Q 922 2950 933 2933 
Q 944 2916 944 2891 
L 944 2481 
Q 1059 2650 1161 2756 
Q 1263 2863 1353 2923 
Q 1444 2984 1533 3007 
Q 1622 3031 1713 3031 
Q 1753 3031 1804 3026 
Q 1856 3022 1912 3009 
Q 1969 2997 2014 2981 
Q 2059 2966 2078 2950 
Q 2097 2934 2103 2920 
Q 2109 2906 2114 2884 
Q 2119 2863 2120 2820 
Q 2122 2778 2122 2706 
z
" transform="scale(0.015625)"/>
      </defs>
      <use xlink:href="#Calibri-53"/>
      <use xlink:href="#Calibri-69" x="45.947266"/>
      <use xlink:href="#Calibri-67" x="68.896484"/>
      <use xlink:href="#Calibri-6e" x="115.966797"/>
      <use xlink:href="#Calibri-61" x="168.505859"/>
      <use xlink:href="#Calibri-6c" x="216.40625"/>
      <use xlink:href="#Calibri-20" x="239.355469"/>
      <use xlink:href="#Calibri-72" x="261.962891"/>
      <use xlink:href="#Calibri-61" x="296.826172"/>
      <use xlink:href="#Calibri-6e" x="344.726562"/>
      <use xlink:href="#Calibri-67" x="397.265625"/>
      <use xlink:href="#Calibri-65" x="444.335938"/>
      <use xlink:href="#Calibri-20" x="494.091797"/>
      <use xlink:href="#Calibri-2f" x="516.699219"/>
      <use xlink:href="#Calibri-20" x="555.322266"/>
      <use xlink:href="#Calibri-61" x="577.929688"/>
      <use xlink:href="#Calibri-2e" x="625.830078"/>
      <use xlink:href="#Calibri-75" x="651.074219"/>
      <use xlink:href="#Calibri-2e" x="703.613281"/>
     </g>
    </g>
   </g>
   <g id="line2d_33">
    <path d="M 104.845426 353.953355 
L 106.363449 353.953355 
L 107.881472 282.072279 
L 110.917519 210.191203 
L 112.435542 389.893429 
L 113.953565 210.191203 
L 115.471588 246.132205 
L 116.989611 174.251129 
L 118.507634 282.072279 
L 120.025657 210.191203 
L 121.543681 246.132205 
L 123.061704 138.311055 
L 124.579727 282.072279 
L 126.09775 138.311055 
L 127.615773 282.072279 
L 129.133796 138.311055 
L 130.651819 282.072279 
L 132.169842 174.251129 
L 133.687865 282.072279 
L 135.205889 102.370053 
L 136.723912 210.191203 
L 138.241935 102.370053 
L 139.759958 210.191203 
L 141.277981 102.370053 
L 142.796004 282.072279 
L 144.314027 102.370053 
L 145.83205 282.072279 
L 147.350074 102.370053 
L 148.868097 210.191203 
L 150.38612 102.370053 
L 151.904143 246.132205 
L 153.422166 138.311055 
L 154.940189 282.072279 
L 156.458212 102.370053 
L 157.976235 210.191203 
L 159.494259 138.311055 
L 161.012282 246.132205 
L 162.530305 102.370053 
L 164.048328 210.191203 
L 165.566351 102.370053 
L 167.084374 210.191203 
L 168.602397 102.370053 
L 170.12042 210.191203 
L 171.638444 138.311055 
L 173.156467 210.191203 
L 174.67449 66.429979 
L 176.192513 174.251129 
L 177.710536 66.429979 
L 179.228559 210.191203 
L 180.746582 102.370053 
L 182.264605 210.191203 
L 183.782629 138.311055 
L 185.300652 246.132205 
L 186.818675 102.370053 
L 188.336698 210.191203 
L 189.854721 102.370053 
L 191.372744 246.132205 
L 192.890767 66.429979 
L 194.40879 210.191203 
L 195.926814 174.251129 
L 197.444837 282.072279 
L 198.96286 138.311055 
L 200.480883 282.072279 
L 201.998906 66.429979 
L 203.516929 246.132205 
L 205.034952 138.311055 
L 206.552975 282.072279 
L 208.070999 138.311055 
L 209.589022 282.072279 
L 211.107045 30.488977 
L 212.625068 282.072279 
L 214.143091 102.370053 
L 215.661114 246.132205 
L 217.179137 102.370053 
L 218.69716 246.132205 
L 220.215184 138.311055 
L 221.733207 246.132205 
L 223.25123 102.370053 
L 224.769253 282.072279 
L 226.287276 138.311055 
L 227.805299 246.132205 
L 229.323322 138.311055 
L 230.841345 282.072279 
L 232.359369 66.429979 
L 233.877392 282.072279 
L 235.395415 102.370053 
L 236.913438 246.132205 
L 238.431461 102.370053 
L 239.949484 210.191203 
L 241.467507 138.311055 
L 242.98553 210.191203 
L 244.503554 138.311055 
L 246.021577 246.132205 
L 247.5396 138.311055 
L 249.057623 246.132205 
L 250.575646 102.370053 
L 252.093669 282.072279 
L 253.611692 174.251129 
L 255.129715 246.132205 
L 256.647739 138.311055 
L 258.165762 282.072279 
L 259.683785 138.311055 
L 261.201808 282.072279 
L 262.719831 102.370053 
L 264.237854 282.072279 
L 265.755877 138.311055 
L 267.2739 282.072279 
L 268.791924 138.311055 
L 270.309947 282.072279 
L 271.82797 138.311055 
L 273.345993 318.013281 
L 274.864016 138.311055 
L 276.382039 282.072279 
L 277.900062 102.370053 
L 279.418085 210.191203 
L 280.936109 138.311055 
L 282.454132 138.311055 
L 283.972155 102.370053 
L 285.490178 246.132205 
L 287.008201 102.370053 
L 288.526224 210.191203 
L 290.044247 102.370053 
L 291.56227 282.072279 
L 293.080294 138.311055 
L 294.598317 246.132205 
L 296.11634 66.429979 
L 297.634363 246.132205 
L 299.152386 102.370053 
L 300.670409 210.191203 
L 302.188432 102.370053 
L 303.706455 210.191203 
L 305.224479 66.429979 
L 306.742502 138.311055 
L 308.260525 66.429979 
L 309.778548 282.072279 
L 311.296571 102.370053 
L 312.814594 282.072279 
L 314.332617 138.311055 
L 315.85064 318.013281 
L 317.368663 138.311055 
L 318.886687 246.132205 
L 320.40471 174.251129 
L 321.922733 282.072279 
L 323.440756 102.370053 
L 324.958779 210.191203 
L 326.476802 102.370053 
L 327.994825 210.191203 
L 329.512848 138.311055 
L 331.030872 246.132205 
L 332.548895 102.370053 
L 334.066918 210.191203 
L 335.584941 66.429979 
L 337.102964 246.132205 
L 338.620987 66.429979 
L 340.13901 210.191203 
L 341.657033 102.370053 
L 343.175057 246.132205 
L 344.69308 102.370053 
L 346.211103 282.072279 
L 347.729126 102.370053 
L 349.247149 246.132205 
L 350.765172 138.311055 
L 352.283195 246.132205 
L 353.801218 102.370053 
L 355.319242 282.072279 
L 356.837265 102.370053 
L 358.355288 282.072279 
L 359.873311 102.370053 
L 361.391334 246.132205 
L 362.909357 102.370053 
L 364.42738 246.132205 
L 365.945403 138.311055 
L 367.463427 210.191203 
L 368.98145 138.311055 
L 370.499473 174.251129 
L 372.017496 102.370053 
L 373.535519 246.132205 
L 375.053542 102.370053 
L 376.571565 210.191203 
L 378.089588 138.311055 
L 379.607612 246.132205 
L 381.125635 66.429979 
L 382.643658 246.132205 
L 384.161681 66.429979 
L 385.679704 246.132205 
L 387.197727 102.370053 
L 388.71575 210.191203 
L 390.233773 102.370053 
L 391.751797 210.191203 
L 393.26982 102.370053 
L 394.787843 246.132205 
L 396.305866 102.370053 
L 397.823889 282.072279 
L 399.341912 138.311055 
L 400.859935 246.132205 
L 402.377958 102.370053 
L 403.895982 210.191203 
L 405.414005 138.311055 
L 406.932028 210.191203 
L 408.450051 102.370053 
L 409.968074 246.132205 
L 411.486097 102.370053 
L 413.00412 282.072279 
L 414.522143 102.370053 
L 416.040167 246.132205 
L 417.55819 138.311055 
L 419.076213 246.132205 
L 420.594236 138.311055 
L 422.112259 210.191203 
L 423.630282 138.311055 
L 425.148305 210.191203 
L 426.666328 138.311055 
L 428.184352 210.191203 
L 429.702375 174.251129 
L 431.220398 282.072279 
L 432.738421 138.311055 
L 434.256444 246.132205 
L 435.774467 102.370053 
L 437.29249 210.191203 
L 438.810513 102.370053 
L 440.328537 246.132205 
L 441.84656 102.370053 
L 443.364583 246.132205 
L 444.882606 138.311055 
L 446.400629 246.132205 
L 447.918652 102.370053 
L 449.436675 210.191203 
L 450.954698 138.311055 
L 452.472722 210.191203 
L 453.990745 138.311055 
L 455.508768 282.072279 
L 457.026791 66.429979 
L 458.544814 246.132205 
L 460.062837 138.311055 
L 461.58086 246.132205 
L 463.098883 138.311055 
L 464.616907 246.132205 
L 466.13493 102.370053 
L 467.652953 246.132205 
L 469.170976 138.311055 
L 470.688999 246.132205 
L 472.207022 102.370053 
L 473.725045 246.132205 
L 475.243068 102.370053 
L 476.761092 210.191203 
L 478.279115 138.311055 
L 479.797138 282.072279 
L 481.315161 102.370053 
L 482.833184 282.072279 
L 484.351207 102.370053 
L 485.86923 210.191203 
L 487.387253 102.370053 
L 488.905277 210.191203 
L 490.4233 174.251129 
L 491.941323 246.132205 
L 493.459346 138.311055 
L 494.977369 246.132205 
L 496.495392 138.311055 
L 498.013415 210.191203 
L 499.531438 102.370053 
L 501.049462 174.251129 
L 502.567485 102.370053 
L 504.085508 282.072279 
L 505.603531 102.370053 
L 507.121554 246.132205 
L 508.639577 66.429979 
L 510.1576 246.132205 
L 511.675623 102.370053 
L 513.193646 174.251129 
L 514.71167 66.429979 
L 516.229693 210.191203 
L 517.747716 102.370053 
L 519.265739 210.191203 
L 520.783762 102.370053 
L 522.301785 210.191203 
L 523.819808 102.370053 
L 525.337831 246.132205 
L 526.855855 138.311055 
L 528.373878 282.072279 
L 529.891901 102.370053 
L 531.409924 282.072279 
L 532.927947 174.251129 
L 534.44597 318.013281 
L 535.963993 246.132205 
L 537.482016 282.072279 
L 539.00004 138.311055 
L 540.518063 318.013281 
L 542.036086 138.311055 
L 543.554109 210.191203 
L 545.072132 102.370053 
L 546.590155 282.072279 
L 548.108178 246.132205 
L 549.626201 353.953355 
L 551.144225 102.370053 
L 552.662248 318.013281 
L 554.180271 138.311055 
L 555.698294 246.132205 
L 557.216317 174.251129 
L 558.73434 318.013281 
L 560.252363 138.311055 
L 561.770386 282.072279 
L 563.28841 102.370053 
L 564.806433 246.132205 
L 566.324456 138.311055 
L 567.842479 246.132205 
L 569.360502 138.311055 
L 570.878525 246.132205 
L 572.396548 138.311055 
L 573.914571 318.013281 
L 575.432595 102.370053 
L 576.950618 210.191203 
L 578.468641 102.370053 
L 579.986664 210.191203 
L 581.504687 102.370053 
L 583.02271 282.072279 
L 584.540733 66.429979 
L 586.058756 246.132205 
L 587.57678 66.429979 
L 589.094803 246.132205 
L 590.612826 102.370053 
L 592.130849 210.191203 
L 593.648872 102.370053 
L 595.166895 210.191203 
L 596.684918 102.370053 
L 598.202941 246.132205 
L 599.720965 102.370053 
L 601.238988 246.132205 
L 602.757011 102.370053 
L 604.275034 318.013281 
L 605.793057 138.311055 
L 607.31108 353.953355 
L 608.829103 246.132205 
L 610.347126 210.191203 
L 611.86515 102.370053 
L 613.383173 210.191203 
L 614.901196 102.370053 
L 616.419219 210.191203 
L 617.937242 66.429979 
L 619.455265 210.191203 
L 620.973288 102.370053 
L 622.491311 246.132205 
L 624.009335 138.311055 
L 625.527358 282.072279 
L 627.045381 66.429979 
L 628.563404 210.191203 
L 630.081427 66.429979 
L 631.59945 282.072279 
L 633.117473 210.191203 
L 634.635496 318.013281 
L 636.15352 246.132205 
L 637.671543 246.132205 
L 639.189566 102.370053 
L 640.707589 210.191203 
L 642.225612 102.370053 
L 643.743635 210.191203 
L 645.261658 138.311055 
L 646.779681 246.132205 
L 648.297705 102.370053 
L 649.815728 282.072279 
L 651.333751 174.251129 
L 652.851774 282.072279 
L 654.369797 102.370053 
L 655.88782 246.132205 
L 657.405843 102.370053 
L 658.923866 246.132205 
L 660.44189 102.370053 
L 661.959913 246.132205 
L 663.477936 138.311055 
L 664.995959 282.072279 
L 666.513982 210.191203 
L 668.032005 246.132205 
L 669.550028 102.370053 
L 671.068051 282.072279 
L 672.586075 102.370053 
L 674.104098 246.132205 
L 675.622121 102.370053 
L 677.140144 246.132205 
L 678.658167 210.191203 
L 680.17619 282.072279 
L 681.694213 174.251129 
L 683.212236 353.953355 
L 684.73026 282.072279 
L 686.248283 389.893429 
L 687.766306 282.072279 
L 689.284329 425.834431 
L 690.802352 353.953355 
L 692.320375 389.893429 
L 693.838398 282.072279 
L 695.356421 389.893429 
L 696.874444 353.953355 
L 698.392468 353.953355 
L 699.910491 246.132205 
L 701.428514 353.953355 
L 702.946537 318.013281 
L 704.46456 425.834431 
L 705.982583 282.072279 
L 707.500606 425.834431 
L 709.018629 282.072279 
L 710.536653 353.953355 
L 712.054676 282.072279 
L 713.572699 389.893429 
L 713.572699 389.893429 
" clip-path="url(#p6812960d7f)" style="fill: none; stroke: #1f77b4; stroke-width: 1.5; stroke-linecap: square"/>
   </g>
   <g id="patch_3">
    <path d="M 74.409063 445.601704 
L 74.409063 10.721704 
" style="fill: none; stroke: #000000; stroke-width: 0.8; stroke-linejoin: miter; stroke-linecap: square"/>
   </g>
   <g id="patch_4">
    <path d="M 744.009063 445.601704 
L 744.009063 10.721704 
" style="fill: none; stroke: #000000; stroke-width: 0.8; stroke-linejoin: miter; stroke-linecap: square"/>
   </g>
   <g id="patch_5">
    <path d="M 74.409063 445.601704 
L 744.009063 445.601704 
" style="fill: none; stroke: #000000; stroke-width: 0.8; stroke-linejoin: miter; stroke-linecap: square"/>
   </g>
   <g id="patch_6">
    <path d="M 74.409063 10.721704 
L 744.009063 10.721704 
" style="fill: none; stroke: #000000; stroke-width: 0.8; stroke-linejoin: miter; stroke-linecap: square"/>
   </g>
  </g>
 </g>
 <defs>
  <clipPath id="p6812960d7f">
   <rect x="74.409063" y="10.721704" width="669.6" height="434.88"/>
  </clipPath>
 </defs>
</svg>
